<?xml version="1.0" encoding="UTF-8"?>
<svg id="katman_2" data-name="katman 2" xmlns="http://www.w3.org/2000/svg" viewBox="0 0 55.32 55.32">
  <defs>
    <style>
      .cls-1 {
        fill: #fff;
        stroke: #000;
        stroke-miterlimit: 10;
      }
    </style>
  </defs>
  <g id="katman_1" data-name="katman 1" transform="translate(6.07, 0)">
    <g>
      <path class="cls-1" d="M8.17,15.54h26.34c5.64,0,9.34,5.89,6.9,10.98l-11.54,23.97c-2.62,5.45-10.23,5.85-13.41.7L1.65,27.22c-3.15-5.1.52-11.68,6.51-11.68Z"/>
      <path class="cls-1" d="M8.32,8.98h26.34c5.64,0,9.34,5.89,6.9,10.98l-11.54,23.97c-2.62,5.45-10.23,5.85-13.41.7L1.8,20.65c-3.15-5.1.52-11.68,6.51-11.68Z"/>
      <path class="cls-1" d="M8.68.5h26.34c5.64,0,9.34,5.89,6.9,10.98l-11.54,23.97c-2.62,5.45-10.23,5.85-13.41.7L2.17,12.18C-.98,7.08,2.69.5,8.68.5Z"/>
    </g>
  </g>
</svg>